<?xml version="1.0" encoding="UTF-8"?>
<svg xmlns="http://www.w3.org/2000/svg" viewBox="0 0 192 192" width="192" height="192" data-render-method="ccl-color-threshold" data-source="docs/buildable-slice/generated/devbrain-flat.svg" data-parts="5">
  <g data-part="part-body" data-pivot="96,123" fill="#c9ced1">
    <rect x="67" y="94" width="20" height="5" fill="#c9ced1"/>
    <rect x="107" y="94" width="20" height="6" fill="#c9ced1"/>
    <rect x="28" y="98" width="7" height="7" fill="#c9ced1"/>
    <rect x="160" y="98" width="7" height="7" fill="#c9ced1"/>
    <rect x="60" y="99" width="2" height="1" fill="#c9ced1"/>
    <rect x="62" y="99" width="1" height="1" fill="#c9ced1"/>
    <rect x="63" y="99" width="1" height="1" fill="#c9ced1"/>
    <rect x="64" y="99" width="23" height="1" fill="#c9ced1"/>
    <rect x="87" y="99" width="6" height="1" fill="#c9ced1"/>
    <rect x="102" y="99" width="5" height="1" fill="#c9ced1"/>
    <rect x="127" y="99" width="7" height="1" fill="#c9ced1"/>
    <rect x="60" y="100" width="33" height="6" fill="#c9ced1"/>
    <rect x="93" y="100" width="1" height="6" fill="#c9ced1"/>
    <rect x="101" y="100" width="1" height="6" fill="#c9ced1"/>
    <rect x="102" y="100" width="32" height="6" fill="#c9ced1"/>
    <rect x="22" y="105" width="1" height="7" fill="#c9ced1"/>
    <rect x="23" y="105" width="5" height="7" fill="#c9ced1"/>
    <rect x="167" y="105" width="4" height="7" fill="#c9ced1"/>
    <rect x="28" y="106" width="1" height="6" fill="#c9ced1"/>
    <rect x="54" y="106" width="86" height="6" fill="#c9ced1"/>
    <rect x="21" y="112" width="1" height="1" fill="#c9ced1"/>
    <rect x="22" y="112" width="13" height="1" fill="#c9ced1"/>
    <rect x="48" y="112" width="6" height="1" fill="#c9ced1"/>
    <rect x="54" y="112" width="18" height="1" fill="#c9ced1"/>
    <rect x="84" y="112" width="28" height="13" fill="#c9ced1"/>
    <rect x="124" y="112" width="23" height="6" fill="#c9ced1"/>
    <rect x="160" y="112" width="1" height="1" fill="#c9ced1"/>
    <rect x="161" y="112" width="3" height="1" fill="#c9ced1"/>
    <rect x="164" y="112" width="7" height="1" fill="#c9ced1"/>
    <rect x="21" y="113" width="14" height="6" fill="#c9ced1"/>
    <rect x="48" y="113" width="24" height="6" fill="#c9ced1"/>
    <rect x="160" y="113" width="11" height="6" fill="#c9ced1"/>
    <rect x="35" y="118" width="13" height="1" fill="#c9ced1"/>
    <rect x="125" y="118" width="22" height="1" fill="#c9ced1"/>
    <rect x="147" y="118" width="13" height="1" fill="#c9ced1"/>
    <rect x="21" y="119" width="51" height="6" fill="#c9ced1"/>
    <rect x="124" y="119" width="47" height="6" fill="#c9ced1"/>
    <rect x="21" y="125" width="150" height="3" fill="#c9ced1"/>
    <rect x="21" y="128" width="1" height="1" fill="#c9ced1"/>
    <rect x="22" y="128" width="145" height="1" fill="#c9ced1"/>
    <rect x="167" y="128" width="4" height="1" fill="#c9ced1"/>
    <rect x="28" y="129" width="139" height="7" fill="#c9ced1"/>
    <rect x="28" y="136" width="7" height="1" fill="#c9ced1"/>
    <rect x="35" y="136" width="58" height="8" fill="#c9ced1"/>
    <rect x="93" y="136" width="1" height="8" fill="#c9ced1"/>
    <rect x="101" y="136" width="1" height="8" fill="#c9ced1"/>
    <rect x="102" y="136" width="58" height="8" fill="#c9ced1"/>
    <rect x="160" y="136" width="7" height="1" fill="#c9ced1"/>
    <rect x="42" y="144" width="45" height="7" fill="#c9ced1"/>
    <rect x="107" y="144" width="1" height="2" fill="#c9ced1"/>
    <rect x="108" y="144" width="45" height="7" fill="#c9ced1"/>
    <rect x="107" y="148" width="1" height="3" fill="#c9ced1"/>
    <rect x="42" y="151" width="44" height="1" fill="#c9ced1"/>
    <rect x="86" y="151" width="1" height="1" fill="#c9ced1"/>
    <rect x="108" y="151" width="14" height="1" fill="#c9ced1"/>
    <rect x="123" y="151" width="30" height="1" fill="#c9ced1"/>
  </g>
  <g data-part="part-leg-left" data-pivot="72.5,152" fill="#ff7f0e">
    <rect x="72" y="152" width="8" height="20" fill="#ff7f0e"/>
    <rect x="65" y="172" width="15" height="6" fill="#ff7f0e"/>
  </g>
  <g data-part="part-leg-right" data-pivot="122.5,151" fill="#1f77b4">
    <rect x="122" y="151" width="1" height="1" fill="#1f77b4"/>
    <rect x="115" y="152" width="1" height="26" fill="#1f77b4"/>
    <rect x="116" y="152" width="6" height="20" fill="#1f77b4"/>
    <rect x="116" y="172" width="14" height="6" fill="#1f77b4"/>
  </g>
  <g data-part="part-antenna" data-pivot="145,112" fill="#2ca02c">
    <rect x="157" y="77" width="1" height="6" fill="#2ca02c"/>
    <rect x="158" y="77" width="8" height="1" fill="#2ca02c"/>
    <rect x="158" y="78" width="1" height="1" fill="#2ca02c"/>
    <rect x="159" y="78" width="1" height="1" fill="#2ca02c"/>
    <rect x="160" y="78" width="1" height="1" fill="#2ca02c"/>
    <rect x="161" y="78" width="4" height="1" fill="#2ca02c"/>
    <rect x="165" y="78" width="1" height="7" fill="#2ca02c"/>
    <rect x="158" y="79" width="7" height="4" fill="#2ca02c"/>
    <rect x="157" y="83" width="8" height="2" fill="#2ca02c"/>
    <rect x="157" y="85" width="1" height="1" fill="#2ca02c"/>
    <rect x="158" y="85" width="3" height="1" fill="#2ca02c"/>
    <rect x="161" y="85" width="2" height="1" fill="#2ca02c"/>
    <rect x="163" y="85" width="3" height="1" fill="#2ca02c"/>
    <rect x="154" y="86" width="4" height="4" fill="#2ca02c"/>
    <rect x="152" y="90" width="6" height="5" fill="#2ca02c"/>
    <rect x="151" y="91" width="1" height="1" fill="#2ca02c"/>
    <rect x="67" y="93" width="20" height="1" fill="#2ca02c"/>
    <rect x="107" y="93" width="20" height="1" fill="#2ca02c"/>
    <rect x="147" y="95" width="6" height="11" fill="#2ca02c"/>
    <rect x="143" y="106" width="10" height="2" fill="#2ca02c"/>
    <rect x="143" y="108" width="6" height="3" fill="#2ca02c"/>
    <rect x="143" y="111" width="4" height="1" fill="#2ca02c"/>
  </g>
  <g data-part="part-eyes" data-pivot="98.5,118.5" fill="#d62728">
    <rect x="72" y="112" width="12" height="1" fill="#d62728"/>
    <rect x="112" y="112" width="12" height="1" fill="#d62728"/>
    <rect x="72" y="113" width="12" height="12" fill="#d62728"/>
    <rect x="112" y="113" width="12" height="12" fill="#d62728"/>
    <rect x="124" y="118" width="1" height="1" fill="#d62728"/>
  </g>
  <g data-role="pivot-markers" fill="none" stroke="#111" stroke-width="0.6">
    <circle cx="96" cy="123" r="2.5"/>
    <circle cx="72.5" cy="152" r="2.5"/>
    <circle cx="122.5" cy="151" r="2.5"/>
    <circle cx="145" cy="112" r="2.5"/>
    <circle cx="98.5" cy="118.5" r="2.5"/>
  </g>
</svg>
